<svg width="64" height="60" viewBox="0 0 64 60" fill="none" xmlns="http://www.w3.org/2000/svg" xmlns:xlink="http://www.w3.org/1999/xlink">
<path d="M7.989,54.829L14.904,59L54.088,3.973L47.48,-1L7.989,54.829ZM-1,15.283C-1,23.626 5.377,29.481 13.751,29.481C22.126,29.481 28.426,23.626 28.426,15.283C28.426,6.861 22.126,1.005 13.751,1.005C5.377,1.005 -1,6.861 -1,15.283ZM7.682,15.283C7.682,11.353 10.525,8.786 13.751,8.786C16.978,8.786 19.744,11.353 19.744,15.283C19.744,19.294 17.055,21.861 13.751,21.861C10.601,21.861 7.682,19.294 7.682,15.283ZM33.574,43.439C33.574,51.781 39.951,57.717 48.325,57.717C56.623,57.717 63,51.781 63,43.439C63,35.016 56.623,29.241 48.325,29.241C39.951,29.241 33.574,35.016 33.574,43.439ZM42.256,43.439C42.256,39.428 45.098,36.861 48.325,36.861C51.475,36.861 54.318,39.428 54.318,43.439C54.318,47.369 51.552,49.936 48.325,49.936C45.175,49.936 42.256,47.369 42.256,43.439Z" fill="#00BDF8"/>
</svg>
