<svg width="48" height="30" viewBox="0 0 48 30" fill="none" xmlns="http://www.w3.org/2000/svg" xmlns:xlink="http://www.w3.org/1999/xlink">
<path d="M46.114,28.604L40.873,28.604C38.89,28.604 38.277,27.027 34.713,23.415C31.609,20.41 30.236,20.004 29.473,20.004C28.403,20.004 28.096,20.31 28.096,21.786L28.096,26.519C28.096,27.793 27.691,28.556 24.331,28.556C18.784,28.556 12.624,25.197 8.3,18.934C1.785,9.775 0,2.903 0,1.478C0,0.715 0.307,0.003 1.782,0.003L7.023,0.003C8.345,0.003 8.856,0.613 9.366,2.037C11.96,9.52 16.287,16.086 18.069,16.086C18.73,16.086 19.036,15.779 19.036,14.102L19.036,6.361C18.832,2.798 16.948,2.494 16.948,1.223C16.948,0.61 17.459,0 18.27,0L26.516,0C27.637,0 28.042,0.61 28.042,1.932L28.042,12.368C28.042,13.486 28.553,13.895 28.857,13.895C29.518,13.895 30.08,13.486 31.3,12.266C35.068,8.041 37.763,1.527 37.763,1.527C38.121,0.763 38.731,0.051 40.056,0.051L45.297,0.051C46.874,0.051 47.232,0.862 46.874,1.983C46.213,5.039 39.801,14.096 39.801,14.096C39.242,15.013 39.037,15.418 39.801,16.44C40.36,17.203 42.193,18.781 43.416,20.205C45.654,22.751 47.382,24.887 47.842,26.365C48.353,27.838 47.586,28.601 46.111,28.601L46.114,28.604Z" fill="#FFFFFF"/>
</svg>
