<svg width="48" height="48" viewBox="0 0 48 48" fill="none" xmlns="http://www.w3.org/2000/svg" xmlns:xlink="http://www.w3.org/1999/xlink">
<path d="M47.996,23.998C47.996,10.744 37.252,0 23.998,0C10.744,0 0,10.744 0,23.998C0,35.976 8.776,45.904 20.248,47.705L20.248,30.935L14.155,30.935L14.155,23.998L20.248,23.998L20.248,18.711C20.248,12.697 23.831,9.374 29.313,9.374C31.938,9.374 34.685,9.843 34.685,9.843L34.685,15.749L31.659,15.749C28.678,15.749 27.748,17.599 27.748,19.496L27.748,23.998L34.404,23.998L33.34,30.935L27.748,30.935L27.748,47.705C39.221,45.904 47.996,35.976 47.996,23.998Z" fill="#FFFFFF"/>
</svg>
