<svg width="50" height="40" viewBox="0 0 50 40" fill="none" xmlns="http://www.w3.org/2000/svg" xmlns:xlink="http://www.w3.org/1999/xlink">
<path d="M47.908,5.138C46.138,5.916 44.248,6.446 42.258,6.688C44.286,5.466 45.846,3.54 46.584,1.242C44.682,2.352 42.574,3.16 40.33,3.61C38.538,1.692 35.984,0.492 33.148,0.492C27.714,0.492 23.308,4.898 23.308,10.326C23.308,11.106 23.398,11.856 23.562,12.574C15.382,12.188 8.132,8.26 3.28,2.322C2.426,3.766 1.948,5.444 1.948,7.272C1.948,10.692 3.688,13.698 6.324,15.464C4.71,15.412 3.192,14.968 1.868,14.232L1.868,14.354C1.868,19.124 5.254,23.102 9.76,24.008C8.934,24.23 8.062,24.35 7.168,24.35C6.54,24.35 5.938,24.29 5.336,24.178C6.598,28.084 10.226,30.932 14.544,31.012C11.184,33.65 6.926,35.222 2.34,35.222C1.56,35.222 0.782,35.176 0,35.088C4.378,37.876 9.536,39.506 15.114,39.506C33.222,39.506 43.112,24.514 43.112,11.534C43.112,11.116 43.112,10.694 43.082,10.274C45.004,8.896 46.682,7.154 48.002,5.178L47.908,5.138Z" fill="#FFFFFF"/>
</svg>
